<?xml version="1.0" encoding="utf-8"?>
<!-- Generator: Adobe Illustrator 18.0.0, SVG Export Plug-In . SVG Version: 6.00 Build 0)  -->
<!DOCTYPE svg PUBLIC "-//W3C//DTD SVG 1.1//EN" "http://www.w3.org/Graphics/SVG/1.1/DTD/svg11.dtd">
<svg version="1.1" id="Calque_1" xmlns="http://www.w3.org/2000/svg" xmlns:xlink="http://www.w3.org/1999/xlink" x="0px" y="0px"
	 viewBox="14 2 70.3 62.1" enable-background="new 14 2 70.3 62.1" xml:space="preserve">
<path fill="#FFFFFF" d="M72.5,61.2H45.2c-2.5,0-7.5-3.2-7.5-5.9V31.1c0-0.5,0.3-1,0.8-1.3c5.5-3,8.2-8.5,11.1-16.8v-8
	c0-0.3,0.1-0.5,0.2-0.8C50.7,2.9,52.2,2,54.1,2c2.3,0,4.8,1.4,6.6,3.8c1.8,2.4,4.4,7.7,2.2,16.9h12.5c2.8,0,9.1,2.9,9.1,7.6
	c0,1.5-0.2,3.9-1.2,5.3c0.8,2.2,0.9,5.7-1.5,8.2c0.2,4.2-0.9,7.2-3.1,8.9c0,2.2-1.1,4.9-2.6,6.7C75.1,60.5,73.8,61.2,72.5,61.2z
	 M40.7,32v23.3c0.2,0.8,3.2,2.9,4.5,2.9h27.3c0.4,0,0.9-0.3,1.4-0.9c1.2-1.4,2-3.8,1.8-5.3c-0.1-0.6,0.2-1.2,0.8-1.5
	c2.4-1.3,2.5-5.1,2.3-7.3c0-0.5,0.2-0.9,0.5-1.3c2.2-1.8,1.5-5.1,0.9-6c-0.3-0.4-0.3-0.9-0.1-1.4c0.2-0.4,0.6-0.8,1-0.9
	c-0.1-0.1,0.4-1.3,0.4-3.5c0-2.4-4.4-4.6-6.1-4.6H61c-0.5,0-0.9-0.2-1.2-0.6c-0.3-0.4-0.4-0.9-0.2-1.3C61.5,17,61,11.1,58.3,7.5
	c-1.4-1.9-3.1-2.6-4.2-2.6c-0.6,0-1.2,0.2-1.5,0.6v7.7c0,0.2,0,0.3-0.1,0.5C49.5,22.3,46.5,28.4,40.7,32z"/>
<path fill="#FFFFFF" d="M35.5,64.1H19.2c-2.9,0-5.2-2.3-5.2-5.2V27.8c0-2.9,2.3-5.2,5.2-5.2h16.3c2.9,0,5.2,2.3,5.2,5.2v31.1
	C40.7,61.8,38.4,64.1,35.5,64.1z M19.2,25.6c-1.2,0-2.2,1-2.2,2.2v31.1c0,1.2,1,2.2,2.2,2.2h16.3c1.2,0,2.2-1,2.2-2.2V27.8
	c0-1.2-1-2.2-2.2-2.2C35.5,25.6,19.2,25.6,19.2,25.6z"/>
</svg>
