<?xml version="1.0" encoding="utf-8"?>
<!-- Generator: Adobe Illustrator 18.0.0, SVG Export Plug-In . SVG Version: 6.00 Build 0)  -->
<!DOCTYPE svg PUBLIC "-//W3C//DTD SVG 1.1//EN" "http://www.w3.org/Graphics/SVG/1.1/DTD/svg11.dtd">
<svg version="1.1" id="Calque_1" xmlns="http://www.w3.org/2000/svg" xmlns:xlink="http://www.w3.org/1999/xlink" x="0px" y="0px"
	 viewBox="0 0 48.1 40.3" enable-background="new 0 0 48.1 40.3" xml:space="preserve">
<metadata><?xpacket begin="﻿" id="W5M0MpCehiHzreSzNTczkc9d"?>
<x:xmpmeta xmlns:x="adobe:ns:meta/" x:xmptk="Adobe XMP Core 5.6-c011 79.156289, 2014/03/31-23:39:12        ">
   <rdf:RDF xmlns:rdf="http://www.w3.org/1999/02/22-rdf-syntax-ns#">
      <rdf:Description rdf:about=""
            xmlns:dc="http://purl.org/dc/elements/1.1/"
            xmlns:xmp="http://ns.adobe.com/xap/1.0/"
            xmlns:xmpGImg="http://ns.adobe.com/xap/1.0/g/img/"
            xmlns:xmpMM="http://ns.adobe.com/xap/1.0/mm/"
            xmlns:stRef="http://ns.adobe.com/xap/1.0/sType/ResourceRef#"
            xmlns:stEvt="http://ns.adobe.com/xap/1.0/sType/ResourceEvent#"
            xmlns:xmpTPg="http://ns.adobe.com/xap/1.0/t/pg/"
            xmlns:stDim="http://ns.adobe.com/xap/1.0/sType/Dimensions#"
            xmlns:xmpG="http://ns.adobe.com/xap/1.0/g/">
         <dc:format>image/svg+xml</dc:format>
         <xmp:CreatorTool>Adobe Illustrator CC 2014 (Macintosh)</xmp:CreatorTool>
         <xmp:CreateDate>2015-02-26T16:33:08+01:00</xmp:CreateDate>
         <xmp:ModifyDate>2015-02-26T16:33:08+01:00</xmp:ModifyDate>
         <xmp:MetadataDate>2015-02-26T16:33:08+01:00</xmp:MetadataDate>
         <xmp:Thumbnails>
            <rdf:Alt>
               <rdf:li rdf:parseType="Resource">
                  <xmpGImg:width>256</xmpGImg:width>
                  <xmpGImg:height>204</xmpGImg:height>
                  <xmpGImg:format>JPEG</xmpGImg:format>
                  <xmpGImg:image>/9j/4AAQSkZJRgABAgEASABIAAD/7QAsUGhvdG9zaG9wIDMuMAA4QklNA+0AAAAAABAASAAAAAEA&#xA;AQBIAAAAAQAB/+4ADkFkb2JlAGTAAAAAAf/bAIQABgQEBAUEBgUFBgkGBQYJCwgGBggLDAoKCwoK&#xA;DBAMDAwMDAwQDA4PEA8ODBMTFBQTExwbGxscHx8fHx8fHx8fHwEHBwcNDA0YEBAYGhURFRofHx8f&#xA;Hx8fHx8fHx8fHx8fHx8fHx8fHx8fHx8fHx8fHx8fHx8fHx8fHx8fHx8fHx8f/8AAEQgAzAEAAwER&#xA;AAIRAQMRAf/EAaIAAAAHAQEBAQEAAAAAAAAAAAQFAwIGAQAHCAkKCwEAAgIDAQEBAQEAAAAAAAAA&#xA;AQACAwQFBgcICQoLEAACAQMDAgQCBgcDBAIGAnMBAgMRBAAFIRIxQVEGE2EicYEUMpGhBxWxQiPB&#xA;UtHhMxZi8CRygvElQzRTkqKyY3PCNUQnk6OzNhdUZHTD0uIIJoMJChgZhJRFRqS0VtNVKBry4/PE&#xA;1OT0ZXWFlaW1xdXl9WZ2hpamtsbW5vY3R1dnd4eXp7fH1+f3OEhYaHiImKi4yNjo+Ck5SVlpeYmZ&#xA;qbnJ2en5KjpKWmp6ipqqusra6voRAAICAQIDBQUEBQYECAMDbQEAAhEDBCESMUEFURNhIgZxgZEy&#xA;obHwFMHR4SNCFVJicvEzJDRDghaSUyWiY7LCB3PSNeJEgxdUkwgJChgZJjZFGidkdFU38qOzwygp&#xA;0+PzhJSktMTU5PRldYWVpbXF1eX1RlZmdoaWprbG1ub2R1dnd4eXp7fH1+f3OEhYaHiImKi4yNjo&#xA;+DlJWWl5iZmpucnZ6fkqOkpaanqKmqq6ytrq+v/aAAwDAQACEQMRAD8A9U4q7FXYq7FXYq7FXYq7&#xA;FXYq7FXYq7FXYq7FXYq7FXYq7FXYq7FXYq7FXYq7FXYq7FXYq7FXYq7FWuWKuBrireKuxV2KuxV2&#xA;KuxV2KuxV2KuxV2KuxV2KuxV2KuxV2KuxV2KuxV2KuxV2KuxV2KuxV2KtMwXFWhICaYquPQ4qpVx&#xA;Vch3xVfirsVdirsVdirsVdirsVdirsVdirsVdirsVdirsVdirsVdirsVdirsVdirsVdirsVdiqjM&#xA;fiHyxVZyxVEN9k/LFUPXFV8R+PFVbFXYq7FXYq7FXYq7FXYq7FXYq7FXYq7FXYq7FXYq7FWmdV+0&#xA;aYq2CCKg1GKtO3FS3hiqHFy9d+nhiqJBqK4qsklVOu5PbFXRyq/TqO2Kr8VdirsVQ9wfjHyxVS5Y&#xA;qi3P7tj7H9WKoTliqpAf3gxVE4q7FXYq7FXYq7FXYq7FXYq7FXYq7FXYq7FXYq0GUmgIJHbFW8VQ&#xA;dy370jwpiqraGqsMVX3BpC30frxVBVxVME3RT7DFUJcn96foxV1sf3o+RxVFu3FGbwGKoEyMTUnf&#xA;FUXA5eME9ehxVQuj+9+jFVGuKo6Q/uWP+T/DFUDXFVW2P74fTiqMxV2KuxV2KuxV2KuxV2KuxV2K&#xA;uxV2KuxV2KqdwxWFyPDFUDC9JU+YxVMsVS+6P79vo/ViqtYmvP6P44qq3ZpA30frxVL64qmcRrEh&#xA;/wAkfqxVBXTfv2+j9WKutD+/X6f1Yqi7j+5f5Yql1cVR1kaw/ScVULw/vvoGKqFcVTGT/ec/6v8A&#xA;DFUuriqran9+v0/qxVMMVdirsVdirsVdirsVdirsVdirsVdirsVdiqjdmlu5+X6xiqXRt+8X5j9e&#xA;KpviqWXTf6Q/z/hiqtpxqz/IYqrXppbn5jFUt5Yqm0BrBH/qj9WKpfdt/pD/AEfqxVuzP+kp9P6j&#xA;iqNujS3f5fxxVK+WKphp5rC3+sf1DFUPfGk5+QxVD8sVTOU/6IT/AJIxVLOWKq1o3+kJ9P6sVTPF&#xA;XYq7FXYq7FXYq7FXYq7FXYq7FXYqg727kikCJttUnFVe1mM0Icih6H6MVWX5pbN9H68VSxW+IfPF&#xA;U7xVKLpv9Ik+eKq+mGsjj2/jiqvqBpb/AEjFUs5Yqm9qa28Z9sVS68b/AEmT5/wxV1m3+kp8/wCG&#xA;Kphemlq5+X6xiqU8sVTHTTWJv9b+GKoa/b/SW+Q/ViqH5YqmkpH1Gv8AkD+GKpXyxVWs2/0mP5/w&#xA;xVNsVdirsVdirsVdirsVdirsVdirsVdiqU6k3+lEeAGKovSzW3Psx/UMVb1I0tT8xiqU8sVZBiqS&#xA;XTf6TL/rH9eKojSm/fsP8n+IxVEamaWw/wBYfqOKpVyxVOrI1tYz7fxxVK7w/wClSfPFXWZ/0qP5&#xA;4qmWoGlo/wBH6xiqT8sVTLSjWOT5j9WKobUT/pbfIfqxVDcsVTWU/wC4wH/IX+GKpVyxVWsz/pUf&#xA;zxVOsVdirsVdirsVdirsVdirsVdirsVdiqSak3+mOPCn6hiqM0dqwOPBv4Yqv1Y0tR/rD9RxVJ+W&#xA;KsjjNUU+IGKpBct/pMv+u368VROkt/pJHih/WMVRWrmlsv8Arj9RxVKOWKp5pxrZxn5/rOKpReH/&#xA;AEqX/WOKt2bf6VF/rDFU01P/AHjb5j9eKpLyxVM9HNUl+Y/jiqF1I/6bJ/sf+IjFUNyxVNpmP6JB&#xA;/wAhP1gYqlPLFVazb/Sov9YYqn2KuxV2KuxV2KuxV2KrZZool5SMFHSpxVcrKwDKag7gjFXYq7FX&#xA;Yqx/UW/02X5j9QxVHaI1UlHgR/HFV+tGlsn+uP1HFUm5YqyWA1gjPio/VirHbhv38n+s368VRWkN&#xA;/plPFTiqL1o0gT/X/gcVSfliqe6Wa2Sexb9ZxVJ7tv8ASpv9dv14q60b/Sof9df14qm+rmlmf9YY&#xA;qkfLFU00RqiYeHH+OKoTUm/02X6P+IjFUNyxVN52H6GB/wAlP1jFUo5YqrWbf6XD/rj9eKsixV2K&#xA;uxV2KuxVJLO7kbVN3JV2YUrtTemKp3iqUa6/xwr4Bj99MVRekNysU9iR+NcVRUr+nE7/AMilvuFc&#xA;VSqw1S4lu1jkIKPUAAAU2rtiqb4qxq/at5N/rEfdiqO0Ft5h/qn9eKquusBBGPFv4YqkvLFWT2Zr&#xA;aQnr8C/qGKsblb96/wDrH9eKorSG/wBOQeIb9WKozXTSGL/WP6sVSbliqf6Oa2K+xI/HFUlumrcy&#xA;nxdv14q1bN/pMX+uv68VTnWjSz+bj+OKpFyxVNdBb4ph7L/HFUJqZ/06X5j9QxVC8sVTeY/7hEPs&#xA;v/EsVSjliqtZt/pcH/GRf1jFWTYq7FUHq07w2bMjcWJCgjrvirelTvNZIznk4JBJ9jiqLJoCT0G+&#xA;KsWspKXsLE9XWv0nFWU4qkOvP/paL4IPxJxVG6C9bNh/K5/UMVRWoNxspz/kEfeKYqx2wel7Af8A&#xA;LUfeaYqynFWK3jg3c5/4sb9ZxVH6A37+Uf5IP3HFVXzA1I4R4k/gMVSXlirKNPNbGA/5A/DFWMO3&#xA;xt8ziqL0dv8AchEPHl/xE4qjvMDUjhHiW/hiqS8sVZBobVsfk5H6sVSO4es8h8Xb9eKtQNSeMjsw&#xA;/Xiqea81LNfeQD8DiqQcsVTby+37yYewP4nFUFqTf6dN/rYqhuWKpxM5/QMZ8aD/AIY4qk/LFVW1&#xA;al1DT+df1jFWV4q7FUq8wvS2jXxev3A/1xVvy89bWRf5Xr94H9MVR903G1mb+VGP3A4qxKKTjIjf&#xA;ykH7jirMsVY3rj11Bh/Kqj8K/wAcVRnlx6xzr4FT94P9MVRmsNx06b34j72GKsahfjNG38rA/ccV&#xA;ZjirD7hiZ5D4u368VTDy83+mOPGM/rGKq/mNqC3Hjz/CmKpJXFWU6U1dPhJ/l/UTirFq4qjNJY/p&#xA;GH5n/iJxVH+Y2oLcePP8KYqklcVZD5fatk3tIR+AxVIZmrM5HQsf14q1ExEiHwI/XiqfeYSBZxjv&#xA;6g/4icVY/XFU28ut+/lH+QP14qg9Tb/T5/8AWOKoWuKpxMw/w/ER40/4Y4qk9cVVLZqXERPZ1/Xi&#xA;qd6vqk9pcRJHShHJwRWorSn4YqmoNRUdMVSLzK/xW6eAYn6aYq7y1J8c6eIVh9FR/HFUz1RuOnzn&#xA;/JI+/bFWI1xVmsDc4Y3/AJlB+8YqxfWHrqU59wPuUDFUZ5af99OnioP3H+3FUb5gfjp5H8zqP4/w&#xA;xVjNcVZtG3KNW/mAP3jFWFO1WJ8ScVTHy+3+5CnijD9RxVE+ZmPO3HajfwxVJK4qynSDXSIyfB/+&#xA;JHFWLVxVFaW3+5CD/WGKpj5mb4rcezn76YqklcVZF5batnIPCQ/ioxVj7t8bfM4q0HoQfDfFWQeZ&#xA;DS1i/wBf+BxVj1cVTfy2f9LlH/Ff/GwxVA6kf9PuP+MjfrxVDVxVN5j/AM65Af8Aiw/8SbFUoriq&#xA;pAf38f8ArD9eKovzDLy1Jl/kVV/Cv8cVZFYyepZQP3ZFr86b4qkPmWSt8i/yxj7yTiq3y3JS/K/z&#xA;xkfcQcVTfXn46ZL/AJRUf8MDirE+WKsz0x+en25/4rUfcKYqxXUZOV/cH/ixh9xpiqN8tyUv2X+a&#xA;Mj8QcVR3mZ6WkS+MlfuU/wBcVY3yxVmllJXToH7+kp+kLirC+WKphoLf7lIh4hh/wpOKovzO37+A&#xA;f5J/XiqScsVZPo7A6KfYSV/HFWMcsVROmsP0hb1/34v68VTPzQ3723Hfix+8jFUj5YqyPyw1baYe&#xA;Dg/eMVY5yxV3LFWQ+ZWrbW58WJ/DFWPcsVTfyyf9Pk/4xH/iS4qgdRet/c/8ZHH3EjFUNyxVNpnP&#xA;+HIP+MpA/wCGOKpTyxVdG37xfmP14qratLz1K5Pg5X/gfh/hirI/L8vqaXGO6FlP31/UcVSHzBJy&#xA;1WUdlCj/AIUHFVuhycNUgPiSv3qRiqd+Z346eo/mkA/AnFWLVxVl+gPy0qHxXkD/AMEcVYncScri&#xA;Vv5nY/ecVRvl+SmqxD+YMP8AhScVTDzW9Ftl8S5P0UxVj9cVZbpsgOgq56CN/wDhSR/DFWJVxVG6&#xA;I9NUt96bkfepGKozzSw+uRDv6f8AxscVSauKsk0dq6DP7CQf8LXFWN1xVXsGAvrYnoJU/wCJDFU0&#xA;81MPrMA78CfxxVJK4qyDywx+rXQHYgg/QcVY/XFXVxVP/Mjk2lmegapp9AxVIK4qmvlk/wC5E/8A&#xA;GNv1jFUDqJ/3IXP/ABlf/iRxVQriqazMD5bg9pyD9zYqlVcVbV6MD4GuKrJpfUmkk/nYt95rirJP&#xA;KcvK2ni/kcN/wQp/xriqR6rJz1K5P/FjD/gTT+GKrLCXhfW7/wAsiE/8EMVT7za9ILdPFmP3D+3F&#xA;WNVxVlXlmYfouQn/AHW7fdxBxVivLFUXo8nHU7Y+Lgf8Ft/HFUy82P8A6TAvghP3n+zFUirirJtK&#xA;k/51y4I6oso/4Un+OKsZriqL0l6anbf8ZFH3mmKo3zUw/SKDwiWv/BNiqT1xVkWjsT5dvfb1af8A&#xA;IsYqx2uKqto4F3CfCRT+IxVNvNZH12Ed/T/42OKpJXFU/wDLLkW19T9lVI+5v6YqkFcVdXFU98xy&#xA;Vs9P/wApCf8AhV/riqRVxVNfLJ/3KL/qNiqAvm/024r19R/+JHFVGuKpnMf+deg/4zt+o4qllcVd&#xA;XFXXC+lcSx/yOy/caYqyXyjHS0nl/nk4/wDAiv8AxtiqRawvDVLpf+LGb/gt/wCOKqenL6l/bJ2a&#xA;VAflyFcVZB5vX/Rrd/ByPvH9mKsX5Yqy3yvHXSnr/uyRv1AfwxViRJBoeoxVG6KOeq2y/wCWD/wO&#xA;/wDDFUy83ilzbt4oR9x/txVIOWKsq0aOvlyYf78WXp8iP4YqxXliqN0Uc9Vth/lg/dviqO82imoR&#xA;N4xD8GbFUk5YqyfREJ8u3f8Al+r/AMQA/hirGOWKq9gOd9bL/NKg+9hiqb+bhS7gbxjp9zH+uKpD&#xA;yxVkflVOVte7V5cV/A/1xVjnLFXcsVZF5nTjZ2G32QV/4Vf6Yqx3liqb+Vhy1T/VjY/qH8cVQGo/&#xA;DqF0o6CaQD/gjiqH5Yqm86/86zbv/wAvB/Uw/hiqUcsVbX4mC16mmKonXE9LVrpfF+X/AAQ5fxxV&#xA;lXluLho8J7vyc/Sxp+GKsc8zLw1iU/zhG/4UD+GKrPLieprFuOy8mP0Kf44qn/m1a6WrfySqfwI/&#xA;jirDuWKs58uJx0a38W5N97HFWF3Y4XUyfyuw+4kYqmHlheesQn+UO3/CkfxxVMfOa/DaP7uD/wAL&#xA;irGeWKs50OKuhwJ/Ojf8MxP8cVYNyxVNPLQ5azB/khz/AMIRiqO85Ck9s3irD7iP64qx3lirNPL8&#xA;ddAUf78EnT/WI/hirC+WKo3RBz1a1H/FgP3b4qm/nMUe0bxDj7uP9cVY3yxVlvk9f9Amfxlp9yj+&#xA;uKsTf4XZfAkfdirlPJgB1JpirKvOAAsrcjaklAP9if6YqxTliqe+T99QmPhCRT5sv9MVS7Warqt0&#xA;D/vxj9++KoPlirILhaeULc9KScvvdv64qx/liqtZ/FdwL4yKPvYYqj/NqcNXLf78jVv1r/xrirLt&#xA;Pi9Gwt4u6RoD86CuKsX85Jx1GJ+zxAfSGP8AXFVvk9OepyP2SI/eSBiqfeZk5aLOe68GH/BjFWCc&#xA;sVeiaQnDS7Rf+KkJ+ZFcVYPrI4ardj/i1j95r/HFUx8nLy1ORv5Yj95ZRiqZec1/0GB/CWn3qT/D&#xA;FWIcsVei6UnDTLRe/pJX5lQcVefXA4TyJ/KzD7jiqb+UF5aqx/kiY/iB/HFUf51X93aN4Fx94X+m&#xA;KsV5Yq9A0FeOj2o8Ur95J/jirAZBxkZf5SRv7HFUy8sjnrVv4DmT9CHFU386j9zat4M4+8D+mKsU&#xA;5YqzXyitNJr/ADSMf1D+GKsQvfhvJ1r0kcfcxxVq0HO7hX+aRR95GKst84j/AHFxnwmU/wDCsMVY&#xA;byxVknksVuLlvBFH3k/0xVLPMFF1m6A/mB+9QcVS7lirK7pKeTU7UVG395B/XFWKcsVRekjlqloP&#xA;+Lk/BgcVZXrmgPqVzBKsgRYxxkBrUrWu1MVTnFWLeeI6fVJf9dT/AMKRirXkeOpu5T/kKPxJ/hiq&#xA;e64nPSLseETN/wACK/wxV5zyxV6hAnpwxx/yKF+4UxVgfmZeGt3I7Eqw+lAcVTPyQtZrt/5VRf8A&#xA;giT/AMa4qmHnBa6RX+WVT+BH8cVYRyxV6hbp6cEadOCqv3CmKvOdVHDU7tfCaSny5HFU68krW7uX&#xA;/ljA+9q/wxVG+dV/0CB/CWlfmp/pirDuWKvStLThptovhDHX/gRirzy/HC+uU/llcfcxxVNPKA5a&#xA;wD/LG5/UP44qm/nVf9x8D+EwH3q39MVYbyxVn3lZaaHbn+Yuf+HIxVhmrjjqt4P+LpD97E4q7SRz&#xA;1SzX/i6OvyDA4qy7zetdHY0+zIh+Xb+OKsG5YqyryONrxv8AjGB/w2KpX5pqNcuPcIR/wCjFUp5Y&#xA;qza7T/nT1HX/AEeJv+ItirCeWKph5fHLWbQf5dfuBOKvQ8VdirHvO6V02GTukwH0FW/pirfkmOml&#xA;yyHq8pp8goH664qnV8nqWVxH15xuv3qRirzSzUyXkEf88iL97AYq9RxVgnnFeOsk/wA8aN+sfwxV&#xA;NfIyf6LdSfzOq/8AAiv/ABtiqYeak5aFckdV4H/hxirArdfUuIo+vN1WnXqaYq9TxV5z5hHDWrsf&#xA;5df+CAP8cVTzyKvw3j+JjUfRyOKo3zmtdHB/llU/gR/HFWC8sVeqQJwhjT+VQPuFMVeca2OGr3g6&#xA;fvnP3muKpt5IFdSnbwhI+9l/piqb+c1ro4P8sqn8CP44qwXlir0by8vHRbQeKV+8k4qwrzCOGtXY&#xA;pT95X7wDirvLw561aDb7dd/YE4qy/wA1iuhXB/lKH/h1H8cVef8ALFWY+Rl/0S5fxkAr8l/txVKf&#xA;N9BrT07ohP3UxVJOWKvQr2P/AJ1l0IrxtR0/yUB/hirz3liqbeVRy1227gcyf+AbFXoOKuxVL9e0&#xA;6TUNNkt4iFlqrIW6VB9vbFW9D099P0yK2kIaVas5XpViTiqPIBBB3B6jFXm2iRE67axHqkwJ/wBg&#xA;a/wxV6TirCfPS01G3f8Amhp9zE/xxVN/JKcdHZv55mP4KP4Yqj/MCctFvB4Rlv8Agd/4YqwDRl9T&#xA;VrNexmjr8gwJxV6firz3zaOOvXB/mCH/AIQD+GKp95FX/cdcSfzTcf8AgVB/42xVGeblroNwf5Sh&#xA;/wCHA/jirALcc540/mZV+80xV6virzjzOOGu3a9PiU/8EoP8cVTfyEtZrx/5VQV+ZY/wxVN/N610&#xA;Kc0+yyH/AIcD+OKvPeWKvUNHThpNmvcQR1+ZUVxVg3mscNeuh2PAj6UXFW/KY5a9beC8zv8A6jYq&#xA;zDzKvLQrseCg/cwOKvN+WKs58jL/ALipW7tO2/sEXFUn87grrCV/ahUj/gmH8MVY9yxV6fexj9DX&#xA;EdKD6u607j4CMVeYcsVT3yYOWtqevGNz+FP44qz7FXYq7FXYq7FWN6f5Wntdea/aVGtwzvGgry+M&#xA;EAEEU25eOKskxVi3nfTru4FrNbwtME5LIEBYitCuw38cVTby1aTWmi28M6lJfiZ1PUcmJH4YqjNQ&#xA;haewuYVFWlidFHuykYqwHytaXD69ADGwEBLS1BHGgNK+G+KvRcVYH55gkTVkmKn05Ylo3YlSQR+r&#xA;FWQeTYJItEQupUyu0gB22NAD9NMVRnmCCSfRruKNSzlKqo3J4kNQfdirz/Q4JLjV7SNFLUlRnp2V&#xA;WBY/dir1DFXn/nS1li1l5ypEU6qUfsSqhSPntiqceQ7aWOzuJ3UqkzKIyRSoQHf5fFiqceYbWW60&#xA;a6hiXnIygqo6kqwbb7sVeaRRTTTLDEheVzxVANycVer20XpW8UX++0Vdv8kUxVg/naznj1T6yVPo&#xA;zqvF+3JRQj8MVXeR7OaTUmuuJ9GFGBcjbk2wA96YqzDVrV7rTbm3Td5I2CD/ACqbfjiry2RJI5Gj&#xA;kUrIpoyEUII7UxV6J5TsprTRo1mUpJIzSFD1AbYV+gYqkvnyxn9aC9VS0QT0nYfskMSK/PlirG9O&#xA;sp767jtoVLM5HIjoq92PsMVeqSxiSJ4yaB1Kk/MUxV5XfWV1Y3L29whR1Ox7MPEHuMVZL5G024E8&#xA;l/IhWLgY4iRTkSQSR7CmKsxxV2KuxV2KuxV2KuxV2KuxV2KuxV2KrJvQ4fvuPCopzpSvbriq/FXY&#xA;qpRfVfUf0uHqf7s405fTTFVXFVk3ocP33H06j7dKV7dcVXilBTp2pirsVUl+qeu3D0/X/bpTn9Pf&#xA;FVXFVsvpemfV4+n+1zpT6a4q6L0/TX0uPp0+HjSlPamKrsVUX+p+uvP0/X24148/ald8VVsVafhx&#xA;POnGnxV6U98VUbT6hRvqnpca/F6XGlffjiqviqyX0aD1eNO3Kn8cVX4q/wD/2Q==</xmpGImg:image>
               </rdf:li>
            </rdf:Alt>
         </xmp:Thumbnails>
         <xmpMM:DocumentID>xmp.did:f187e590-491b-4f21-9eaf-2c486468e93d</xmpMM:DocumentID>
         <xmpMM:InstanceID>xmp.iid:f187e590-491b-4f21-9eaf-2c486468e93d</xmpMM:InstanceID>
         <xmpMM:DerivedFrom rdf:parseType="Resource">
            <stRef:instanceID>uuid:981E3EA93164DF118E6D90B556E55533</stRef:instanceID>
            <stRef:documentID>uuid:971E3EA93164DF118E6D90B556E55533</stRef:documentID>
            <stRef:originalDocumentID>uuid:971E3EA93164DF118E6D90B556E55533</stRef:originalDocumentID>
         </xmpMM:DerivedFrom>
         <xmpMM:OriginalDocumentID>uuid:971E3EA93164DF118E6D90B556E55533</xmpMM:OriginalDocumentID>
         <xmpMM:History>
            <rdf:Seq>
               <rdf:li rdf:parseType="Resource">
                  <stEvt:action>saved</stEvt:action>
                  <stEvt:instanceID>xmp.iid:f187e590-491b-4f21-9eaf-2c486468e93d</stEvt:instanceID>
                  <stEvt:when>2015-02-26T16:33:08+01:00</stEvt:when>
                  <stEvt:softwareAgent>Adobe Illustrator CC 2014 (Macintosh)</stEvt:softwareAgent>
                  <stEvt:changed>/</stEvt:changed>
               </rdf:li>
            </rdf:Seq>
         </xmpMM:History>
         <xmpTPg:MaxPageSize rdf:parseType="Resource">
            <stDim:w>16.965787</stDim:w>
            <stDim:h>14.216586</stDim:h>
            <stDim:unit>Millimeters</stDim:unit>
         </xmpTPg:MaxPageSize>
         <xmpTPg:NPages>1</xmpTPg:NPages>
         <xmpTPg:HasVisibleTransparency>False</xmpTPg:HasVisibleTransparency>
         <xmpTPg:HasVisibleOverprint>False</xmpTPg:HasVisibleOverprint>
         <xmpTPg:PlateNames>
            <rdf:Seq>
               <rdf:li>Cyan</rdf:li>
               <rdf:li>Magenta</rdf:li>
               <rdf:li>Yellow</rdf:li>
               <rdf:li>Black</rdf:li>
            </rdf:Seq>
         </xmpTPg:PlateNames>
         <xmpTPg:SwatchGroups>
            <rdf:Seq>
               <rdf:li rdf:parseType="Resource">
                  <xmpG:groupName>Groupe de nuances par défaut</xmpG:groupName>
                  <xmpG:groupType>0</xmpG:groupType>
               </rdf:li>
            </rdf:Seq>
         </xmpTPg:SwatchGroups>
      </rdf:Description>
   </rdf:RDF>
</x:xmpmeta>
                                                                                                    
                                                                                                    
                                                                                                    
                                                                                                    
                                                                                                    
                                                                                                    
                                                                                                    
                                                                                                    
                                                                                                    
                                                                                                    
                                                                                                    
                                                                                                    
                                                                                                    
                                                                                                    
                                                                                                    
                                                                                                    
                                                                                                    
                                                                                                    
                                                                                                    
                                                                                                    
                           
<?xpacket end="w"?>
	</metadata>
<linearGradient id="SVGID_1_" gradientUnits="userSpaceOnUse" x1="24.046" y1="51.21" x2="24.046" y2="13.534" gradientTransform="matrix(1 0 0 -1 0 53.89)">
	<stop  offset="0" style="stop-color:#FFFFFF"/>
	<stop  offset="1" style="stop-color:#B6B6B6"/>
</linearGradient>
<path fill="url(#SVGID_1_)" d="M1.1,24.2c-0.2,0-0.3,0.1-0.4,0.4L0,29.7l0.7,5.1c0,0.2,0.2,0.4,0.4,0.4c0.2,0,0.3-0.1,0.4-0.4l0,0v0
	c0,0,0,0,0,0l0.8-5.1l-0.8-5.2C1.4,24.3,1.2,24.2,1.1,24.2z M4.9,21.3c0-0.2-0.2-0.4-0.4-0.4c-0.2,0-0.4,0.2-0.4,0.4
	c0,0-0.9,8.4-0.9,8.4l0.9,8.2c0,0.2,0.2,0.4,0.4,0.4c0.2,0,0.4-0.2,0.4-0.4l1-8.2L4.9,21.3z M19.3,13.6c-0.4,0-0.7,0.3-0.7,0.7
	l-0.7,15.4l0.7,9.9c0,0.4,0.3,0.7,0.7,0.7c0.4,0,0.7-0.3,0.7-0.7v0l0.8-9.9L20,14.3C20,13.9,19.7,13.6,19.3,13.6z M11.8,19
	c-0.3,0-0.5,0.2-0.5,0.5l-0.8,10.2l0.8,9.8c0,0.3,0.3,0.5,0.5,0.5c0.3,0,0.5-0.2,0.5-0.5l0.9-9.8l-0.9-10.2
	C12.3,19.2,12.1,19,11.8,19z M26.9,40.3c0.5,0,0.8-0.4,0.9-0.9l0.7-9.8L27.7,9.2c0-0.5-0.4-0.9-0.9-0.9c-0.5,0-0.8,0.4-0.9,0.9
	c0,0-0.6,20.5-0.6,20.5l0.6,9.8C26,39.9,26.4,40.3,26.9,40.3z M42.4,40.4c0.6,0,1.2-0.5,1.2-1.2v0v0l0.5-9.5L43.5,6.1
	c0-0.6-0.5-1.2-1.2-1.2c-0.6,0-1.2,0.5-1.2,1.2l-0.4,23.6c0,0,0.4,9.5,0.4,9.5C41.2,39.8,41.7,40.4,42.4,40.4z M34.6,40.3
	c0.6,0,1-0.4,1-1v0l0.6-9.6L35.6,9.1c0-0.6-0.5-1-1-1c-0.6,0-1,0.4-1,1L33,29.7l0.5,9.6C33.5,39.9,34,40.3,34.6,40.3z M15.5,40.2
	c0.3,0,0.6-0.3,0.6-0.6l0.9-9.9l-0.9-9.4c0-0.3-0.3-0.6-0.6-0.6c-0.3,0-0.6,0.3-0.6,0.6l-0.8,9.4l0.8,9.9
	C14.9,40,15.2,40.2,15.5,40.2z M8.1,39.7c0.2,0,0.4-0.2,0.5-0.5l1-9.5l-1-9.9c0-0.3-0.2-0.5-0.5-0.5c-0.2,0-0.4,0.2-0.5,0.5
	c0,0-0.9,9.9-0.9,9.9l0.9,9.5C7.7,39.5,7.9,39.7,8.1,39.7z M38.4,8.7c-0.6,0-1.1,0.5-1.1,1.1l-0.5,19.9l0.5,9.6
	c0,0.6,0.5,1.1,1.1,1.1c0.6,0,1.1-0.5,1.1-1.1v0l0.6-9.6L39.5,9.8C39.5,9.2,39,8.7,38.4,8.7z M23.1,40.3c0.4,0,0.8-0.3,0.8-0.8
	l0.8-9.9l-0.8-18.9c0-0.4-0.4-0.8-0.8-0.8c-0.4,0-0.8,0.3-0.8,0.8c0,0-0.7,18.9-0.7,18.9l0.7,9.9C22.3,40,22.6,40.3,23.1,40.3z
	 M31.6,39.4L31.6,39.4l0.7-9.7L31.6,8.5c0-0.5-0.4-0.9-0.9-0.9c-0.5,0-0.9,0.4-0.9,0.9l-0.6,21.1l0.6,9.7c0,0.5,0.4,0.9,0.9,0.9
	C31.2,40.3,31.6,39.9,31.6,39.4L31.6,39.4z M46.3,2.7c-0.7,0-1.3,0.6-1.3,1.3l-0.5,25.8l0.5,9.4c0,0.7,0.6,1.2,1.3,1.2
	c0.7,0,1.2-0.6,1.3-1.3v0l0.6-9.4L47.5,3.9C47.5,3.2,47,2.7,46.3,2.7z"/>
</svg>
